<svg width="64" height="64" viewBox="0 0 64 64" fill="none" xmlns="http://www.w3.org/2000/svg">
<path fill-rule="evenodd" clip-rule="evenodd" d="M32.1939 52C32.1939 51.2938 32.1879 50.6032 32.1821 49.9238C32.1685 48.3465 32.1554 46.8293 32.2185 45.316C32.2759 43.9464 31.7428 43.6102 30.447 43.5856C29.6776 43.5748 28.9058 43.5735 28.1335 43.5721H28.1332C25.3659 43.5672 22.5914 43.5623 19.892 43.1263C13.3721 42.0765 7.21297 35.4007 8.08229 26.5844C8.7712 19.556 14.8729 13.3559 22.0818 13.1345C28.6017 12.9376 35.1299 12.9786 41.6498 13.1181C48.0058 13.2575 53.6564 17.6779 55.4525 23.6074C57.4126 30.0946 55.4607 36.7457 50.1381 40.4691C46.1714 43.2417 42.1012 45.8737 38.0305 48.506C36.3698 49.58 34.7089 50.6539 33.055 51.7376C32.9565 51.805 32.8317 51.833 32.633 51.8777L32.633 51.8777C32.5175 51.9037 32.3769 51.9353 32.2021 51.9836L32.1939 52ZM39.9847 42.1408C38.8092 42.9035 37.5993 43.6886 36.3437 44.5151V39.4439C36.1016 39.428 35.8722 39.4107 35.6519 39.3941L35.6515 39.3941C35.0807 39.3511 34.5702 39.3127 34.0555 39.3127C32.509 39.3057 30.9639 39.3077 29.4197 39.3097H29.4193H29.4193C27.3606 39.3124 25.3035 39.3151 23.2463 39.2963C17.079 39.2389 12.2813 34.4822 12.1747 28.3805C12.0763 22.5823 16.9314 17.3991 22.8937 17.2515C28.938 17.1038 34.9987 17.1285 41.043 17.2515C46.1031 17.3499 50.0233 20.4499 51.4503 25.1492C52.8691 29.8157 51.2781 34.4904 47.0791 37.4264C44.7983 39.0174 42.4685 40.5291 39.9848 42.1407L39.9847 42.1408ZM42.8308 25.977H21.3682C20.9417 24.591 21.2288 23.9841 22.8034 24.0005C28.9871 24.0579 35.1708 24.0497 41.3546 24.0005C42.839 23.9923 43.331 24.4844 42.8308 25.977ZM36.1385 30.6757H21.1959C21.2244 31.0372 21.2508 31.3565 21.2752 31.6515C21.3001 31.952 21.3229 32.2273 21.3436 32.4964H36.2944C36.2674 32.1762 36.2422 31.8851 36.218 31.6051C36.1907 31.2898 36.1646 30.9885 36.1385 30.6757Z" fill="black"/>
</svg>
