<svg width="64" height="64" viewBox="0 0 64 64" fill="none" xmlns="http://www.w3.org/2000/svg">
<path d="M14.5607 34.6201C13.2707 32.8601 12.3407 31.0801 13.5907 29.0401C14.7907 27.0701 16.7707 26.9001 18.8507 26.9501C21.3407 27.0101 23.8307 26.9601 26.5307 26.9601C26.0507 24.7201 25.4707 22.7301 25.2507 20.7101C25.0507 18.9201 25.0207 17.0401 25.3107 15.2701C25.7207 12.7501 27.7607 11.0101 30.1207 11.0001C32.5607 10.9901 34.7307 12.0301 35.3307 14.4601C37.0707 21.4101 42.4607 25.5301 47.1507 30.1801C47.9107 30.9301 49.3807 30.9501 50.7307 31.3701V50.0101C41.7807 53.4501 32.5507 52.8501 23.3807 52.8501C23.2107 52.8501 23.0507 52.8501 22.8807 52.8301C19.9107 52.6901 19.9607 49.4601 18.3107 48.3001C16.2807 46.8701 14.6907 45.8201 15.2407 43.0901C15.3307 42.6401 15.1007 41.9901 14.7907 41.6101C12.5307 38.8001 12.4607 37.7301 14.5707 34.6101L14.5607 34.6201ZM32.1207 30.8301C28.2307 30.8301 24.5707 30.8301 20.9207 30.8301C18.4807 30.8301 17.6007 31.9434 18.2807 34.1701C18.3007 34.2501 18.3807 34.3601 18.3607 34.4001C16.7007 36.9901 17.8507 39.2301 18.7807 41.7801C19.3207 43.2601 19.2207 44.7501 20.9707 45.4701C21.4107 45.6501 21.8207 46.2701 21.9407 46.7601C22.4407 48.7001 23.7707 49.0701 25.5307 49.0001C32.6807 48.7101 40.0107 50.1301 46.9907 46.3701C46.9907 43.2001 47.0307 39.7101 46.9507 36.2201C46.9407 35.6801 46.5307 35.0601 46.1307 34.6401C40.8207 28.8901 33.9807 24.3401 31.8907 16.0801C31.7607 15.5801 30.6507 14.8401 30.2907 14.9801C29.6807 15.2101 28.9007 16.0701 28.9207 16.6401C28.9807 18.7801 29.1407 20.9601 29.6307 23.0301C30.2407 25.6001 31.2107 28.0801 32.1107 30.8301H32.1207Z" fill="#004182"/>
<path d="M32.1207 30.8302C31.2307 28.0802 30.2507 25.6002 29.6407 23.0302C29.1507 20.9502 28.9907 18.7802 28.9307 16.6402C28.9107 16.0702 29.7007 15.2102 30.3007 14.9802C30.6607 14.8402 31.7707 15.5802 31.9007 16.0802C33.9907 24.3302 40.8307 28.8902 46.1407 34.6402C46.5307 35.0702 46.9407 35.6902 46.9607 36.2202C47.0307 39.7102 47.0007 43.2002 47.0007 46.3702C40.0107 50.1302 32.6807 48.7102 25.5407 49.0002C23.7807 49.0702 22.4507 48.7102 21.9507 46.7602C21.8207 46.2702 21.4107 45.6502 20.9807 45.4702C19.2307 44.7502 19.3307 43.2602 18.7907 41.7802C17.8607 39.2302 16.7107 36.9902 18.3707 34.4002C18.4007 34.3602 18.3207 34.2502 18.2907 34.1702C17.6107 31.9435 18.4907 30.8302 20.9307 30.8302C24.5807 30.8302 28.2407 30.8302 32.1307 30.8302H32.1207Z" fill="#378FE9"/>
</svg>
