<svg xmlns="http://www.w3.org/2000/svg" viewBox="0 0 102 26" id="linkedin-logo-blue-small" aria-hidden="true" role="none" data-supported-dps="102x26" width="102" height="26">
  <g>
    <path d="M13 10h4v12h-4zm2-6.2a2.22 2.22 0 10.07 0zM4 4H0v18h11v-4H4zm53.9 12.2v.8h-9a2.08 2.08 0 00.07.5 2.82 2.82 0 002.91 1.89 3.59 3.59 0 002.85-1.2l2.72 1.68a7 7 0 01-5.67 2.43c-3.59 0-6.66-2.05-6.66-6.19a6.21 6.21 0 016-6.41h.54c3.42.01 6.24 2.3 6.24 6.5zm-3.75-1.51a2.23 2.23 0 00-2.15-2.3 2.17 2.17 0 00-.36 0 2.54 2.54 0 00-2.75 2.28zM68 4h4v18h-3.39v-1.43a4.54 4.54 0 01-3.88 1.68c-2.51 0-5.55-1.86-5.55-6.25 0-3.92 2.69-6.25 5.5-6.25A4.25 4.25 0 0168 11.11zm.3 12c0-1.88-1.17-3.13-2.66-3.13a3 3 0 00-3 3V16a3 3 0 002.91 3.09h.09a2.78 2.78 0 002.67-2.9 1 1 0 00-.01-.19zm-22.54-6H41l-3.93 4.9H37V4h-4v18h4v-5.73h.07l4 5.73H46l-5-6.52zm-19.23-.3a4.44 4.44 0 00-3.78 2h-.05V10H19v12h4v-6.53a2.26 2.26 0 011.93-2.55h.28c1.1 0 1.79.59 1.79 2.52V22h4v-7.44c0-3.65-2.29-4.86-4.47-4.86zM102 2v22a2 2 0 01-2 2H78a2 2 0 01-2-2V2a2 2 0 012-2h22a2 2 0 012 2zm-18 8h-4v12h4zm.25-4A2.25 2.25 0 1082 8.2a2.19 2.19 0 002.25-2.13zM98 14.56c0-3.65-2.29-4.9-4.47-4.9a4.45 4.45 0 00-3.78 2.05V10H86v12h4v-6.53a2.26 2.26 0 011.93-2.55h.28c1.1 0 1.79.59 1.79 2.52V22h4z" fill="#0a66c2"/>
  </g>
</svg>
