<svg width="64" height="64" viewBox="0 0 64 64" fill="none" xmlns="http://www.w3.org/2000/svg">
<path fill-rule="evenodd" clip-rule="evenodd" d="M32.655 13.0262C33.731 14.6825 34.68 16.1513 35.8164 17.9103H33.9607C32.6147 17.9127 31.2678 17.9105 29.9207 17.9084C27.7651 17.9049 25.6089 17.9015 23.455 17.9164C19.8705 17.9406 18.0027 19.8326 18.0027 23.3929C17.9987 26.4636 18 29.5343 18.0013 32.605C18.002 34.1403 18.0027 35.6757 18.0027 37.211C18.0027 37.5408 18.0224 37.8734 18.0426 38.2146C18.052 38.3737 18.0615 38.5346 18.0692 38.698H21.152V36.9451C21.152 35.4442 21.1513 33.9427 21.1506 32.4409C21.1493 29.4367 21.1479 26.4316 21.152 23.4291C21.152 21.519 21.6114 21.0778 23.5638 21.0657C24.8012 21.0616 26.0359 21.063 27.2696 21.0643C27.8862 21.065 28.5025 21.0657 29.1189 21.0657H35.7862C35.1391 22.0775 34.5511 22.9983 33.9574 23.9283C33.5473 24.5707 33.1344 25.2174 32.6973 25.9014C32.9573 25.9014 33.191 25.8938 33.4065 25.8868C33.8273 25.873 34.179 25.8615 34.5228 25.9135C35.8708 26.113 36.7291 25.6052 37.382 24.3903C37.7717 23.667 38.2321 22.9823 38.6928 22.2972C39.1254 21.654 39.5582 21.0104 39.9328 20.3343C40.1746 19.899 40.1807 19.1011 39.9389 18.672C39.014 17.0218 37.9743 15.432 36.9165 13.8604C36.6747 13.4977 36.2153 13.1109 35.8164 13.0625C35.1401 12.9822 34.452 12.9965 33.6879 13.0123C33.3594 13.0191 33.0168 13.0262 32.655 13.0262ZM32.117 51.5128C31.2345 50.0802 30.3641 48.6657 29.3002 46.9369L29.2881 46.9188C30.8413 46.9188 32.3469 46.9216 33.8209 46.9243C36.6778 46.9296 39.4158 46.9347 42.1512 46.9188C45.101 46.9067 46.993 44.9784 46.993 42.0105C47.0051 37.1526 46.999 32.3007 46.993 27.4428L46.993 27.4367C46.993 27.1412 46.9643 26.8429 46.9347 26.5338C46.9212 26.3939 46.9076 26.2519 46.8963 26.1069H43.9646V27.8055C43.9646 29.1076 43.9656 30.4097 43.9666 31.7118C43.969 34.9674 43.9715 38.223 43.9586 41.4786C43.9525 43.3464 43.3843 43.8904 41.5286 43.8904C37.9804 43.9025 34.4261 43.9025 30.8718 43.8904C30.598 43.8904 30.3243 43.86 29.9834 43.8222C29.7974 43.8016 29.5914 43.7788 29.3546 43.7574L29.3621 43.7457C30.4168 42.0882 31.3456 40.6287 32.3286 39.0849C30.0598 38.831 28.3492 39.5967 27.1966 41.3819C26.942 41.7772 26.6307 42.1746 26.3188 42.5728C25.5721 43.5261 24.8221 44.4834 24.8392 45.4258C24.8568 46.4416 25.6422 47.4606 26.4157 48.4642C26.7055 48.8401 26.9935 49.2139 27.2389 49.5845C28.8347 52.0024 29.1612 52.1112 32.117 51.5128Z" fill="black"/>
</svg>
